<svg width="83" height="28" viewBox="0 0 83 28" fill="none" xmlns="http://www.w3.org/2000/svg">
<path opacity="0.9" fill-rule="evenodd" clip-rule="evenodd" d="M68.0613 27.4789C67.2939 26.7643 67.27 25.5827 68.0079 24.8395L78.7713 14L68.0079 3.16047C67.27 2.41734 67.2939 1.23566 68.0613 0.521114C68.8287 -0.193434 70.0491 -0.170265 70.787 0.572866L82.1928 12.0593C83.2691 13.1432 83.2691 14.8568 82.1928 15.9407L70.787 27.4271C70.0491 28.1703 68.8287 28.1934 68.0613 27.4789ZM51.1939 27.4789C50.4264 26.7643 50.4025 25.5827 51.1404 24.8395L61.9039 14L51.1404 3.16047C50.4025 2.41734 50.4264 1.23566 51.1939 0.521114C51.9613 -0.193434 53.1816 -0.170265 53.9195 0.572866L65.3253 12.0593C66.4017 13.1432 66.4016 14.8568 65.3253 15.9407L53.9195 27.4271C53.1816 28.1703 51.9613 28.1934 51.1939 27.4789ZM34.273 24.8395C33.5351 25.5827 33.559 26.7643 34.3265 27.4789C35.0939 28.1934 36.3142 28.1703 37.0521 27.4271L48.4579 15.9407C49.5342 14.8568 49.5342 13.1432 48.4579 12.0593L37.0521 0.572866C36.3142 -0.170265 35.0939 -0.193434 34.3265 0.521114C33.559 1.23566 33.5351 2.41734 34.273 3.16047L45.0364 14L34.273 24.8395ZM17.459 27.4789C16.6916 26.7643 16.6677 25.5827 17.4056 24.8395L28.169 14L17.4056 3.16047C16.6677 2.41734 16.6916 1.23566 17.459 0.521114C18.2265 -0.193434 19.4468 -0.170265 20.1847 0.572866L31.5905 12.0593C32.6668 13.1432 32.6668 14.8568 31.5905 15.9407L20.1847 27.4271C19.4468 28.1703 18.2265 28.1934 17.459 27.4789ZM0.538155 24.8395C-0.19976 25.5827 -0.175835 26.7643 0.591599 27.4789C1.35903 28.1934 2.57935 28.1703 3.31726 27.4271L14.7231 15.9407C15.7994 14.8568 15.7994 13.1432 14.7231 12.0593L3.31726 0.572866C2.57935 -0.170265 1.35903 -0.193434 0.591599 0.521114C-0.175835 1.23566 -0.19976 2.41734 0.538155 3.16047L11.3016 14L0.538155 24.8395Z" fill="white"/>
</svg>
