<svg id="svg20" xmlns="http://www.w3.org/2000/svg" xmlns:xlink="http://www.w3.org/1999/xlink" viewBox="0 0 1958.94 379.27"><defs><style>.cls-1{fill:#fff;}.cls-2{mask:url(#mask);}.cls-3{mask:url(#mask-2-2);}.cls-4{mask:url(#mask-3);}.cls-5{mask:url(#mask-4);}.cls-6{mask:url(#mask-5);}.cls-7{mask:url(#mask-6);}.cls-8{mask:url(#mask-7);}.cls-9{mask:url(#mask-8);}</style><mask id="mask" x="0" y="0.72" width="1713.5" height="309.98" maskUnits="userSpaceOnUse"><g transform="translate(0 0)"><g id="mask-2"><g id="use41"><polygon id="path-1" class="cls-1" points="0 0.72 0 195.68 1014.21 195.68 1014.21 0.72 0 0.72"/></g></g></g></mask><mask id="mask-2-2" x="0" y="0.72" width="1901.57" height="309.97" maskUnits="userSpaceOnUse"><g transform="translate(0 0)"><g id="mask-2-3" data-name="mask-2"><g id="use41-2" data-name="use41"><polygon id="path-1-2" data-name="path-1" class="cls-1" points="0 0.72 0 195.68 1014.21 195.68 1014.21 0.72 0 0.72"/></g></g></g></mask><mask id="mask-3" x="0" y="0.72" width="1523.26" height="309.97" maskUnits="userSpaceOnUse"><g transform="translate(0 0)"><g id="mask-2-4" data-name="mask-2"><g id="use41-3" data-name="use41"><polygon id="path-1-3" data-name="path-1" class="cls-1" points="0 0.72 0 195.68 1014.21 195.68 1014.21 0.72 0 0.72"/></g></g></g></mask><mask id="mask-4" x="0" y="0.72" width="1958.94" height="194.96" maskUnits="userSpaceOnUse"><g transform="translate(0 0)"><g id="mask-2-5" data-name="mask-2"><g id="use41-4" data-name="use41"><polygon id="path-1-4" data-name="path-1" class="cls-1" points="0 0.72 0 195.68 1014.21 195.68 1014.21 0.72 0 0.72"/></g></g></g></mask><mask id="mask-5" x="0" y="0" width="1014.21" height="261.07" maskUnits="userSpaceOnUse"><g transform="translate(0 0)"><g id="mask-2-6" data-name="mask-2"><g id="use41-5" data-name="use41"><polygon id="path-1-5" data-name="path-1" class="cls-1" points="0 0.72 0 195.68 1014.21 195.68 1014.21 0.72 0 0.72"/></g></g></g></mask><mask id="mask-6" x="0" y="0.72" width="1014.21" height="377.37" maskUnits="userSpaceOnUse"><g transform="translate(0 0)"><g id="mask-2-7" data-name="mask-2"><g id="use41-6" data-name="use41"><polygon id="path-1-6" data-name="path-1" class="cls-1" points="0 0.72 0 195.68 1014.21 195.68 1014.21 0.72 0 0.72"/></g></g></g></mask><mask id="mask-7" x="0" y="0.72" width="1014.21" height="194.96" maskUnits="userSpaceOnUse"><g transform="translate(0 0)"><g id="mask-2-8" data-name="mask-2"><g id="use41-7" data-name="use41"><polygon id="path-1-7" data-name="path-1" class="cls-1" points="0 0.72 0 195.68 1014.21 195.68 1014.21 0.72 0 0.72"/></g></g></g></mask><mask id="mask-8" x="0" y="0.72" width="1014.21" height="378.55" maskUnits="userSpaceOnUse"><g transform="translate(0 0)"><g id="mask-2-9" data-name="mask-2"><g id="use41-8" data-name="use41"><polygon id="path-1-8" data-name="path-1" class="cls-1" points="0 0.72 0 195.68 1014.21 195.68 1014.21 0.72 0 0.72"/></g></g></g></mask></defs><title>Earthlink_logo</title><g id="g1029"><polygon id="Fill-1" class="cls-1" points="666.55 310.71 510.54 310.71 510.54 82.11 662.64 82.11 662.64 116.73 549 116.73 549 178.45 649.61 178.45 649.61 213.06 549 213.06 549 276.1 666.55 276.1 666.55 310.71"/><path id="Fill-2" class="cls-1" d="M776.56,165.87c-36.74,0-54.54,32.85-54.54,58.61,0,29.59,22.68,57.71,54.25,57.71,31.29,0,55.39-26.34,55.39-57.71,0-34.95-24.39-58.61-55.1-58.61Zm56.19,144.84V283.83h-.63c-12.48,21.25-35.24,31.25-58.62,31.25-58.32,0-91.68-44.67-91.68-90.29,0-42.18,29.62-91.85,91.68-91.85,24,0,46.14,10,58.62,29.05h.63V137.62h35.18V310.71Z" transform="translate(0 0)"/><path id="Fill-4" class="cls-1" d="M932.55,171.59c11.74-23.51,32.6-35.92,60-35.92v35.92c-34.88-2-57,18.62-60,48.33V310.7H895.08V137h37.47Z" transform="translate(0 0)"/><path id="Fill-6" class="cls-1" d="M1093.77,272.9c-8.55,3.53-16.74,5.48-21.84,5.48-11.73,0-18.57-5.56-18.57-23.51V171.59h51.17V138.06h-51.17V82.11h-37.15V261.72c0,35.6,22.49,50.62,48.56,50.62a76.92,76.92,0,0,0,29-5.93Z" transform="translate(0 0)"/><path id="Fill-8" class="cls-1" d="M1297.13,202.61V310.7h-37.48V213.07c0-26.13-15.65-42.13-41.72-42.13-31,.33-49.54,23.51-49.54,54.21V310.7H1130.9V63h37.49v108c12.38-24.48,34.54-35.27,64.2-35.27,40.42,0,64.54,25.47,64.54,66.94" transform="translate(0 0)"/><polygon id="Fill-10" class="cls-1" points="1325.48 82.12 1363.94 82.12 1363.94 275.76 1462.7 275.76 1462.7 310.7 1325.48 310.7 1325.48 82.12"/><g class="cls-2"><path id="Fill-14" class="cls-1" d="M1713.5,202.61V310.7H1676V213.07c0-26.13-15.65-42.13-41.72-42.13-28.69.33-46.62,20.24-49.23,47.35V310.7H1547.6V137h37.48v33.31c12.39-24.16,34.55-34.62,63.88-34.62,40.42,0,64.54,25.47,64.54,66.94" transform="translate(0 0)"/></g><g class="cls-3"><polygon id="Fill-15" class="cls-1" points="1901.57 310.7 1857.24 310.7 1806.39 231.03 1777.07 262.04 1777.07 310.7 1739.58 310.7 1739.58 82.12 1777.07 82.12 1777.07 214.69 1853.66 136.98 1896.68 136.98 1832.47 204.25 1901.57 310.7"/></g><g class="cls-4"><path id="Fill-16" class="cls-1" d="M1523.26,99.37a21.84,21.84,0,1,1-21.84-21.88,21.86,21.86,0,0,1,21.84,21.88M1520,137h-37.15V310.7H1520Z" transform="translate(0 0)"/></g><g class="cls-5"><path id="Fill-17" class="cls-1" d="M1932.13,108.49c3.34,0,5.3-1.71,5.3-4.73s-2-4.66-5.3-4.66h-5.37v9.39Zm5.86,3.59,5.8,8.81H1937l-4.23-7.67h-6v7.67h-5.87V94.36h11.24c7,0,10.92,3.35,10.92,9.15,0,4.17-1.79,7.1-5.06,8.57Zm15.08-3.68a21.72,21.72,0,1,0-21.83,21.72A21.5,21.5,0,0,0,1953.07,108.4Zm5.87,0a27.77,27.77,0,0,1-27.7,27.85,27.77,27.77,0,1,1,27.7-27.85Z" transform="translate(0 0)"/></g></g><g id="g1035"><g class="cls-6"><path id="Fill-18" class="cls-1" d="M68.05,221.79a144.71,144.71,0,0,1-3.77-32.74c0-79.72,64.51-144.35,144.07-144.35A143.27,143.27,0,0,1,263.1,55.51c13.7-9.1,28.9-18.64,44.38-27.3A187.41,187.41,0,0,0,208.35,0C104.15,0,19.67,84.64,19.67,189.05a188.91,188.91,0,0,0,14.21,72c10.19-12.65,21.64-25.81,34.17-39.28" transform="translate(0 0)"/></g><g class="cls-7"><path id="Fill-19" class="cls-1" d="M379.59,110.09c-.19-.4-.36-.81-.55-1.22-1.8-3.82-3.73-7.56-5.77-11.27-.21-.37-.45-.72-.66-1.08a.62.62,0,0,0,.11-.17,189.51,189.51,0,0,0-39-48.41c-.21.09-.4.19-.6.3-7.94,4.16-16.58,9.06-25.69,14.57-4.79,2.89-9.75,6-14.82,9.23a144.19,144.19,0,0,1,59.8,117c0,79.74-64.51,144.37-144.07,144.37A143.94,143.94,0,0,1,79.73,253.88q-15.08,17-30.54,36.59a190.36,190.36,0,0,0,45,49.09l.07,0c.31.23.61.48.91.72,3.33,2.51,6.73,4.91,10.23,7.18.4.27.81.51,1.22.78a187.4,187.4,0,0,0,101.75,29.89c104.2,0,188.67-84.63,188.67-189a188.37,188.37,0,0,0-17.32-79.1Z" transform="translate(0 0)"/></g><g class="cls-8"><path id="Fill-20" class="cls-1" d="M411.63,21.5c-4.32-5-11-7.59-19.81-7.59-28.42,0-85.8,29.56-151.73,77.49a45,45,0,0,1,8,11.12c20.28-14.74,41-28.68,59.32-39.71,9.1-5.51,17.74-10.4,25.67-14.57,25.67-13.49,46-20.64,58.69-20.64,4.64,0,7.81,1,9.44,2.84,4,4.64,2.39,23.8-28.64,66.08.2.37.44.72.65,1.08q3.06,5.54,5.78,11.28c.19.39.35.82.54,1.22l.38-.51c33.36-44.08,44-73.71,31.66-88.09" transform="translate(0 0)"/></g><g class="cls-9"><path id="Fill-21" class="cls-1" d="M208.36,95.51a27.33,27.33,0,0,0-24.36,40c-6.69,5.58-14.68,12.31-16.62,14-53.07,45.75-99.3,93.37-130.17,134.06-34,44.89-44.58,73.68-32.22,88,4.44,5.18,10.8,7.71,19.45,7.71,18,0,47.06-10.95,81.75-30.83l.42-.24c-.41-.26-.82-.5-1.23-.77q-5.22-3.42-10.21-7.19c-.31-.23-.61-.49-.91-.72-30.35,17-55.15,26.35-69.82,26.35-4.17,0-7.23-1.09-9.09-3.25-4.6-5.36.22-29.32,32.74-70.78C93.85,233.49,138,192.92,175.05,161c2-1.74,10.82-9.16,18-15.11a27.49,27.49,0,1,0,15.35-50.33" transform="translate(0 0)"/></g></g></svg>