<svg width="20" height="16" viewBox="0 0 20 16" fill="none" xmlns="http://www.w3.org/2000/svg">
<path id="Subtract" fill-rule="evenodd" clip-rule="evenodd" d="M0.87868 1.37721C0 2.25589 0 3.67011 0 6.49854V9.38062C0 12.209 0 13.6233 0.87868 14.5019C1.75736 15.3806 3.17157 15.3806 6 15.3806H14C16.8284 15.3806 18.2426 15.3806 19.1213 14.5019C20 13.6233 20 12.209 20 9.38062V6.49854C20 3.67011 20 2.25589 19.1213 1.37721C18.2426 0.498535 16.8284 0.498535 14 0.498535H6C3.17157 0.498535 1.75736 0.498535 0.87868 1.37721ZM3.87107 3.90728C3.40544 3.6103 2.78721 3.74702 2.49022 4.21265C2.19324 4.67829 2.32996 5.29652 2.79559 5.5935L8.92452 9.50256C9.58048 9.92093 10.4195 9.92093 11.0755 9.50256L17.2044 5.5935C17.67 5.29652 17.8068 4.67829 17.5098 4.21265C17.2128 3.74702 16.5946 3.6103 16.1289 3.90728L10 7.81634L3.87107 3.90728Z" fill="#434343"/>
</svg>
