<svg width="19" height="19" viewBox="0 0 19 19" fill="none" xmlns="http://www.w3.org/2000/svg">
<path id="Vector 189" d="M2.67963 1.50931L3.55605 0.632888C3.94658 0.242364 4.57974 0.242363 4.97026 0.632887L7.76658 3.4292C8.1571 3.81973 8.1571 4.45289 7.76658 4.84341L5.84261 6.76738C5.528 7.08199 5.45 7.56263 5.64898 7.96059C6.79925 10.2611 8.66465 12.1265 10.9652 13.2768C11.3632 13.4758 11.8438 13.3978 12.1584 13.0832L14.0824 11.1592C14.4729 10.7687 15.1061 10.7687 15.4966 11.1592L18.2929 13.9555C18.6834 14.346 18.6834 14.9792 18.2929 15.3697L17.4165 16.2462C15.3051 18.3575 11.9625 18.5951 9.57382 16.8035L7.94436 15.5814C6.20083 14.2738 4.65201 12.7249 3.34436 10.9814L2.12226 9.35196C0.330722 6.96324 0.568273 3.62067 2.67963 1.50931Z" fill="#434343"/>
</svg>
