<svg width="100" height="100" viewBox="0 0 100 100" fill="none" xmlns="http://www.w3.org/2000/svg">
<g opacity="0.5">
<path d="M3.22581 1.47059C3.22581 2.28277 2.50368 2.94118 1.6129 2.94118C0.722121 2.94118 0 2.28277 0 1.47059C0 0.658405 0.722121 0 1.6129 0C2.50368 0 3.22581 0.658405 3.22581 1.47059Z" fill="white"/>
<path d="M12.9032 1.47059C12.9032 2.28277 12.1811 2.94118 11.2903 2.94118C10.3995 2.94118 9.67742 2.28277 9.67742 1.47059C9.67742 0.658405 10.3995 0 11.2903 0C12.1811 0 12.9032 0.658405 12.9032 1.47059Z" fill="white"/>
<path d="M22.5806 1.47059C22.5806 2.28277 21.8585 2.94118 20.9677 2.94118C20.077 2.94118 19.3548 2.28277 19.3548 1.47059C19.3548 0.658405 20.077 0 20.9677 0C21.8585 0 22.5806 0.658405 22.5806 1.47059Z" fill="white"/>
<path d="M32.2581 1.47059C32.2581 2.28277 31.5359 2.94118 30.6452 2.94118C29.7544 2.94118 29.0323 2.28277 29.0323 1.47059C29.0323 0.658405 29.7544 0 30.6452 0C31.5359 0 32.2581 0.658405 32.2581 1.47059Z" fill="white"/>
<path d="M41.9355 1.47059C41.9355 2.28277 41.2134 2.94118 40.3226 2.94118C39.4318 2.94118 38.7097 2.28277 38.7097 1.47059C38.7097 0.658405 39.4318 0 40.3226 0C41.2134 0 41.9355 0.658405 41.9355 1.47059Z" fill="white"/>
<path d="M51.6129 1.47059C51.6129 2.28277 50.8908 2.94118 50 2.94118C49.1092 2.94118 48.3871 2.28277 48.3871 1.47059C48.3871 0.658405 49.1092 0 50 0C50.8908 0 51.6129 0.658405 51.6129 1.47059Z" fill="white"/>
<path d="M61.2903 1.47059C61.2903 2.28277 60.5682 2.94118 59.6774 2.94118C58.7866 2.94118 58.0645 2.28277 58.0645 1.47059C58.0645 0.658405 58.7866 0 59.6774 0C60.5682 0 61.2903 0.658405 61.2903 1.47059Z" fill="white"/>
<path d="M70.9677 1.47059C70.9677 2.28277 70.2456 2.94118 69.3548 2.94118C68.4641 2.94118 67.7419 2.28277 67.7419 1.47059C67.7419 0.658405 68.4641 0 69.3548 0C70.2456 0 70.9677 0.658405 70.9677 1.47059Z" fill="white"/>
<path d="M80.6452 1.47059C80.6452 2.28277 79.923 2.94118 79.0323 2.94118C78.1415 2.94118 77.4193 2.28277 77.4193 1.47059C77.4193 0.658405 78.1415 0 79.0323 0C79.923 0 80.6452 0.658405 80.6452 1.47059Z" fill="white"/>
<path d="M90.3226 1.47059C90.3226 2.28277 89.6005 2.94118 88.7097 2.94118C87.8189 2.94118 87.0968 2.28277 87.0968 1.47059C87.0968 0.658405 87.8189 0 88.7097 0C89.6005 0 90.3226 0.658405 90.3226 1.47059Z" fill="white"/>
<path d="M100 1.47059C100 2.28277 99.2779 2.94118 98.3871 2.94118C97.4963 2.94118 96.7742 2.28277 96.7742 1.47059C96.7742 0.658405 97.4963 0 98.3871 0C99.2779 0 100 0.658405 100 1.47059Z" fill="white"/>
<path d="M3.22581 10.2941C3.22581 11.1063 2.50368 11.7647 1.6129 11.7647C0.722121 11.7647 0 11.1063 0 10.2941C0 9.48193 0.722121 8.82353 1.6129 8.82353C2.50368 8.82353 3.22581 9.48193 3.22581 10.2941Z" fill="white"/>
<path d="M12.9032 10.2941C12.9032 11.1063 12.1811 11.7647 11.2903 11.7647C10.3995 11.7647 9.67742 11.1063 9.67742 10.2941C9.67742 9.48193 10.3995 8.82353 11.2903 8.82353C12.1811 8.82353 12.9032 9.48193 12.9032 10.2941Z" fill="white"/>
<path d="M22.5806 10.2941C22.5806 11.1063 21.8585 11.7647 20.9677 11.7647C20.077 11.7647 19.3548 11.1063 19.3548 10.2941C19.3548 9.48193 20.077 8.82353 20.9677 8.82353C21.8585 8.82353 22.5806 9.48193 22.5806 10.2941Z" fill="white"/>
<path d="M32.2581 10.2941C32.2581 11.1063 31.5359 11.7647 30.6452 11.7647C29.7544 11.7647 29.0323 11.1063 29.0323 10.2941C29.0323 9.48193 29.7544 8.82353 30.6452 8.82353C31.5359 8.82353 32.2581 9.48193 32.2581 10.2941Z" fill="white"/>
<path d="M41.9355 10.2941C41.9355 11.1063 41.2134 11.7647 40.3226 11.7647C39.4318 11.7647 38.7097 11.1063 38.7097 10.2941C38.7097 9.48193 39.4318 8.82353 40.3226 8.82353C41.2134 8.82353 41.9355 9.48193 41.9355 10.2941Z" fill="white"/>
<path d="M51.6129 10.2941C51.6129 11.1063 50.8908 11.7647 50 11.7647C49.1092 11.7647 48.3871 11.1063 48.3871 10.2941C48.3871 9.48193 49.1092 8.82353 50 8.82353C50.8908 8.82353 51.6129 9.48193 51.6129 10.2941Z" fill="white"/>
<path d="M61.2903 10.2941C61.2903 11.1063 60.5682 11.7647 59.6774 11.7647C58.7866 11.7647 58.0645 11.1063 58.0645 10.2941C58.0645 9.48193 58.7866 8.82353 59.6774 8.82353C60.5682 8.82353 61.2903 9.48193 61.2903 10.2941Z" fill="white"/>
<path d="M70.9677 10.2941C70.9677 11.1063 70.2456 11.7647 69.3548 11.7647C68.4641 11.7647 67.7419 11.1063 67.7419 10.2941C67.7419 9.48193 68.4641 8.82353 69.3548 8.82353C70.2456 8.82353 70.9677 9.48193 70.9677 10.2941Z" fill="white"/>
<path d="M80.6452 10.2941C80.6452 11.1063 79.923 11.7647 79.0323 11.7647C78.1415 11.7647 77.4193 11.1063 77.4193 10.2941C77.4193 9.48193 78.1415 8.82353 79.0323 8.82353C79.923 8.82353 80.6452 9.48193 80.6452 10.2941Z" fill="white"/>
<path d="M90.3226 10.2941C90.3226 11.1063 89.6005 11.7647 88.7097 11.7647C87.8189 11.7647 87.0968 11.1063 87.0968 10.2941C87.0968 9.48193 87.8189 8.82353 88.7097 8.82353C89.6005 8.82353 90.3226 9.48193 90.3226 10.2941Z" fill="white"/>
<path d="M100 10.2941C100 11.1063 99.2779 11.7647 98.3871 11.7647C97.4963 11.7647 96.7742 11.1063 96.7742 10.2941C96.7742 9.48193 97.4963 8.82353 98.3871 8.82353C99.2779 8.82353 100 9.48193 100 10.2941Z" fill="white"/>
<path d="M3.22581 19.1176C3.22581 19.9298 2.50368 20.5882 1.6129 20.5882C0.722121 20.5882 0 19.9298 0 19.1176C0 18.3055 0.722121 17.6471 1.6129 17.6471C2.50368 17.6471 3.22581 18.3055 3.22581 19.1176Z" fill="white"/>
<path d="M12.9032 19.1176C12.9032 19.9298 12.1811 20.5882 11.2903 20.5882C10.3995 20.5882 9.67742 19.9298 9.67742 19.1176C9.67742 18.3055 10.3995 17.6471 11.2903 17.6471C12.1811 17.6471 12.9032 18.3055 12.9032 19.1176Z" fill="white"/>
<path d="M22.5806 19.1176C22.5806 19.9298 21.8585 20.5882 20.9677 20.5882C20.077 20.5882 19.3548 19.9298 19.3548 19.1176C19.3548 18.3055 20.077 17.6471 20.9677 17.6471C21.8585 17.6471 22.5806 18.3055 22.5806 19.1176Z" fill="white"/>
<path d="M32.2581 19.1176C32.2581 19.9298 31.5359 20.5882 30.6452 20.5882C29.7544 20.5882 29.0323 19.9298 29.0323 19.1176C29.0323 18.3055 29.7544 17.6471 30.6452 17.6471C31.5359 17.6471 32.2581 18.3055 32.2581 19.1176Z" fill="white"/>
<path d="M41.9355 19.1176C41.9355 19.9298 41.2134 20.5882 40.3226 20.5882C39.4318 20.5882 38.7097 19.9298 38.7097 19.1176C38.7097 18.3055 39.4318 17.6471 40.3226 17.6471C41.2134 17.6471 41.9355 18.3055 41.9355 19.1176Z" fill="white"/>
<path d="M51.6129 19.1176C51.6129 19.9298 50.8908 20.5882 50 20.5882C49.1092 20.5882 48.3871 19.9298 48.3871 19.1176C48.3871 18.3055 49.1092 17.6471 50 17.6471C50.8908 17.6471 51.6129 18.3055 51.6129 19.1176Z" fill="white"/>
<path d="M61.2903 19.1176C61.2903 19.9298 60.5682 20.5882 59.6774 20.5882C58.7866 20.5882 58.0645 19.9298 58.0645 19.1176C58.0645 18.3055 58.7866 17.6471 59.6774 17.6471C60.5682 17.6471 61.2903 18.3055 61.2903 19.1176Z" fill="white"/>
<path d="M70.9677 19.1176C70.9677 19.9298 70.2456 20.5882 69.3548 20.5882C68.4641 20.5882 67.7419 19.9298 67.7419 19.1176C67.7419 18.3055 68.4641 17.6471 69.3548 17.6471C70.2456 17.6471 70.9677 18.3055 70.9677 19.1176Z" fill="white"/>
<path d="M80.6452 19.1176C80.6452 19.9298 79.923 20.5882 79.0323 20.5882C78.1415 20.5882 77.4193 19.9298 77.4193 19.1176C77.4193 18.3055 78.1415 17.6471 79.0323 17.6471C79.923 17.6471 80.6452 18.3055 80.6452 19.1176Z" fill="white"/>
<path d="M90.3226 19.1176C90.3226 19.9298 89.6005 20.5882 88.7097 20.5882C87.8189 20.5882 87.0968 19.9298 87.0968 19.1176C87.0968 18.3055 87.8189 17.6471 88.7097 17.6471C89.6005 17.6471 90.3226 18.3055 90.3226 19.1176Z" fill="white"/>
<path d="M100 19.1176C100 19.9298 99.2779 20.5882 98.3871 20.5882C97.4963 20.5882 96.7742 19.9298 96.7742 19.1176C96.7742 18.3055 97.4963 17.6471 98.3871 17.6471C99.2779 17.6471 100 18.3055 100 19.1176Z" fill="white"/>
<path d="M3.22581 27.9412C3.22581 28.7534 2.50368 29.4118 1.6129 29.4118C0.722121 29.4118 0 28.7534 0 27.9412C0 27.129 0.722121 26.4706 1.6129 26.4706C2.50368 26.4706 3.22581 27.129 3.22581 27.9412Z" fill="white"/>
<path d="M12.9032 27.9412C12.9032 28.7534 12.1811 29.4118 11.2903 29.4118C10.3995 29.4118 9.67742 28.7534 9.67742 27.9412C9.67742 27.129 10.3995 26.4706 11.2903 26.4706C12.1811 26.4706 12.9032 27.129 12.9032 27.9412Z" fill="white"/>
<path d="M22.5806 27.9412C22.5806 28.7534 21.8585 29.4118 20.9677 29.4118C20.077 29.4118 19.3548 28.7534 19.3548 27.9412C19.3548 27.129 20.077 26.4706 20.9677 26.4706C21.8585 26.4706 22.5806 27.129 22.5806 27.9412Z" fill="white"/>
<path d="M32.2581 27.9412C32.2581 28.7534 31.5359 29.4118 30.6452 29.4118C29.7544 29.4118 29.0323 28.7534 29.0323 27.9412C29.0323 27.129 29.7544 26.4706 30.6452 26.4706C31.5359 26.4706 32.2581 27.129 32.2581 27.9412Z" fill="white"/>
<path d="M41.9355 27.9412C41.9355 28.7534 41.2134 29.4118 40.3226 29.4118C39.4318 29.4118 38.7097 28.7534 38.7097 27.9412C38.7097 27.129 39.4318 26.4706 40.3226 26.4706C41.2134 26.4706 41.9355 27.129 41.9355 27.9412Z" fill="white"/>
<path d="M51.6129 27.9412C51.6129 28.7534 50.8908 29.4118 50 29.4118C49.1092 29.4118 48.3871 28.7534 48.3871 27.9412C48.3871 27.129 49.1092 26.4706 50 26.4706C50.8908 26.4706 51.6129 27.129 51.6129 27.9412Z" fill="white"/>
<path d="M61.2903 27.9412C61.2903 28.7534 60.5682 29.4118 59.6774 29.4118C58.7866 29.4118 58.0645 28.7534 58.0645 27.9412C58.0645 27.129 58.7866 26.4706 59.6774 26.4706C60.5682 26.4706 61.2903 27.129 61.2903 27.9412Z" fill="white"/>
<path d="M70.9677 27.9412C70.9677 28.7534 70.2456 29.4118 69.3548 29.4118C68.4641 29.4118 67.7419 28.7534 67.7419 27.9412C67.7419 27.129 68.4641 26.4706 69.3548 26.4706C70.2456 26.4706 70.9677 27.129 70.9677 27.9412Z" fill="white"/>
<path d="M80.6452 27.9412C80.6452 28.7534 79.923 29.4118 79.0323 29.4118C78.1415 29.4118 77.4193 28.7534 77.4193 27.9412C77.4193 27.129 78.1415 26.4706 79.0323 26.4706C79.923 26.4706 80.6452 27.129 80.6452 27.9412Z" fill="white"/>
<path d="M90.3226 27.9412C90.3226 28.7534 89.6005 29.4118 88.7097 29.4118C87.8189 29.4118 87.0968 28.7534 87.0968 27.9412C87.0968 27.129 87.8189 26.4706 88.7097 26.4706C89.6005 26.4706 90.3226 27.129 90.3226 27.9412Z" fill="white"/>
<path d="M100 27.9412C100 28.7534 99.2779 29.4118 98.3871 29.4118C97.4963 29.4118 96.7742 28.7534 96.7742 27.9412C96.7742 27.129 97.4963 26.4706 98.3871 26.4706C99.2779 26.4706 100 27.129 100 27.9412Z" fill="white"/>
<path d="M3.22581 36.7647C3.22581 37.5769 2.50368 38.2353 1.6129 38.2353C0.722121 38.2353 0 37.5769 0 36.7647C0 35.9525 0.722121 35.2941 1.6129 35.2941C2.50368 35.2941 3.22581 35.9525 3.22581 36.7647Z" fill="white"/>
<path d="M12.9032 36.7647C12.9032 37.5769 12.1811 38.2353 11.2903 38.2353C10.3995 38.2353 9.67742 37.5769 9.67742 36.7647C9.67742 35.9525 10.3995 35.2941 11.2903 35.2941C12.1811 35.2941 12.9032 35.9525 12.9032 36.7647Z" fill="white"/>
<path d="M22.5806 36.7647C22.5806 37.5769 21.8585 38.2353 20.9677 38.2353C20.077 38.2353 19.3548 37.5769 19.3548 36.7647C19.3548 35.9525 20.077 35.2941 20.9677 35.2941C21.8585 35.2941 22.5806 35.9525 22.5806 36.7647Z" fill="white"/>
<path d="M32.2581 36.7647C32.2581 37.5769 31.5359 38.2353 30.6452 38.2353C29.7544 38.2353 29.0323 37.5769 29.0323 36.7647C29.0323 35.9525 29.7544 35.2941 30.6452 35.2941C31.5359 35.2941 32.2581 35.9525 32.2581 36.7647Z" fill="white"/>
<path d="M41.9355 36.7647C41.9355 37.5769 41.2134 38.2353 40.3226 38.2353C39.4318 38.2353 38.7097 37.5769 38.7097 36.7647C38.7097 35.9525 39.4318 35.2941 40.3226 35.2941C41.2134 35.2941 41.9355 35.9525 41.9355 36.7647Z" fill="white"/>
<path d="M51.6129 36.7647C51.6129 37.5769 50.8908 38.2353 50 38.2353C49.1092 38.2353 48.3871 37.5769 48.3871 36.7647C48.3871 35.9525 49.1092 35.2941 50 35.2941C50.8908 35.2941 51.6129 35.9525 51.6129 36.7647Z" fill="white"/>
<path d="M61.2903 36.7647C61.2903 37.5769 60.5682 38.2353 59.6774 38.2353C58.7866 38.2353 58.0645 37.5769 58.0645 36.7647C58.0645 35.9525 58.7866 35.2941 59.6774 35.2941C60.5682 35.2941 61.2903 35.9525 61.2903 36.7647Z" fill="white"/>
<path d="M70.9677 36.7647C70.9677 37.5769 70.2456 38.2353 69.3548 38.2353C68.4641 38.2353 67.7419 37.5769 67.7419 36.7647C67.7419 35.9525 68.4641 35.2941 69.3548 35.2941C70.2456 35.2941 70.9677 35.9525 70.9677 36.7647Z" fill="white"/>
<path d="M80.6452 36.7647C80.6452 37.5769 79.923 38.2353 79.0323 38.2353C78.1415 38.2353 77.4193 37.5769 77.4193 36.7647C77.4193 35.9525 78.1415 35.2941 79.0323 35.2941C79.923 35.2941 80.6452 35.9525 80.6452 36.7647Z" fill="white"/>
<path d="M90.3226 36.7647C90.3226 37.5769 89.6005 38.2353 88.7097 38.2353C87.8189 38.2353 87.0968 37.5769 87.0968 36.7647C87.0968 35.9525 87.8189 35.2941 88.7097 35.2941C89.6005 35.2941 90.3226 35.9525 90.3226 36.7647Z" fill="white"/>
<path d="M100 36.7647C100 37.5769 99.2779 38.2353 98.3871 38.2353C97.4963 38.2353 96.7742 37.5769 96.7742 36.7647C96.7742 35.9525 97.4963 35.2941 98.3871 35.2941C99.2779 35.2941 100 35.9525 100 36.7647Z" fill="white"/>
<path d="M3.22581 45.5882C3.22581 46.4004 2.50368 47.0588 1.6129 47.0588C0.722121 47.0588 0 46.4004 0 45.5882C0 44.7761 0.722121 44.1176 1.6129 44.1176C2.50368 44.1176 3.22581 44.7761 3.22581 45.5882Z" fill="white"/>
<path d="M12.9032 45.5882C12.9032 46.4004 12.1811 47.0588 11.2903 47.0588C10.3995 47.0588 9.67742 46.4004 9.67742 45.5882C9.67742 44.7761 10.3995 44.1176 11.2903 44.1176C12.1811 44.1176 12.9032 44.7761 12.9032 45.5882Z" fill="white"/>
<path d="M22.5806 45.5882C22.5806 46.4004 21.8585 47.0588 20.9677 47.0588C20.077 47.0588 19.3548 46.4004 19.3548 45.5882C19.3548 44.7761 20.077 44.1176 20.9677 44.1176C21.8585 44.1176 22.5806 44.7761 22.5806 45.5882Z" fill="white"/>
<path d="M32.2581 45.5882C32.2581 46.4004 31.5359 47.0588 30.6452 47.0588C29.7544 47.0588 29.0323 46.4004 29.0323 45.5882C29.0323 44.7761 29.7544 44.1176 30.6452 44.1176C31.5359 44.1176 32.2581 44.7761 32.2581 45.5882Z" fill="white"/>
<path d="M41.9355 45.5882C41.9355 46.4004 41.2134 47.0588 40.3226 47.0588C39.4318 47.0588 38.7097 46.4004 38.7097 45.5882C38.7097 44.7761 39.4318 44.1176 40.3226 44.1176C41.2134 44.1176 41.9355 44.7761 41.9355 45.5882Z" fill="white"/>
<path d="M51.6129 45.5882C51.6129 46.4004 50.8908 47.0588 50 47.0588C49.1092 47.0588 48.3871 46.4004 48.3871 45.5882C48.3871 44.7761 49.1092 44.1176 50 44.1176C50.8908 44.1176 51.6129 44.7761 51.6129 45.5882Z" fill="white"/>
<path d="M61.2903 45.5882C61.2903 46.4004 60.5682 47.0588 59.6774 47.0588C58.7866 47.0588 58.0645 46.4004 58.0645 45.5882C58.0645 44.7761 58.7866 44.1176 59.6774 44.1176C60.5682 44.1176 61.2903 44.7761 61.2903 45.5882Z" fill="white"/>
<path d="M70.9677 45.5882C70.9677 46.4004 70.2456 47.0588 69.3548 47.0588C68.4641 47.0588 67.7419 46.4004 67.7419 45.5882C67.7419 44.7761 68.4641 44.1176 69.3548 44.1176C70.2456 44.1176 70.9677 44.7761 70.9677 45.5882Z" fill="white"/>
<path d="M80.6452 45.5882C80.6452 46.4004 79.923 47.0588 79.0323 47.0588C78.1415 47.0588 77.4193 46.4004 77.4193 45.5882C77.4193 44.7761 78.1415 44.1176 79.0323 44.1176C79.923 44.1176 80.6452 44.7761 80.6452 45.5882Z" fill="white"/>
<path d="M90.3226 45.5882C90.3226 46.4004 89.6005 47.0588 88.7097 47.0588C87.8189 47.0588 87.0968 46.4004 87.0968 45.5882C87.0968 44.7761 87.8189 44.1176 88.7097 44.1176C89.6005 44.1176 90.3226 44.7761 90.3226 45.5882Z" fill="white"/>
<path d="M100 45.5882C100 46.4004 99.2779 47.0588 98.3871 47.0588C97.4963 47.0588 96.7742 46.4004 96.7742 45.5882C96.7742 44.7761 97.4963 44.1176 98.3871 44.1176C99.2779 44.1176 100 44.7761 100 45.5882Z" fill="white"/>
<path d="M3.22581 54.4118C3.22581 55.2239 2.50368 55.8824 1.6129 55.8824C0.722121 55.8824 0 55.2239 0 54.4118C0 53.5996 0.722121 52.9412 1.6129 52.9412C2.50368 52.9412 3.22581 53.5996 3.22581 54.4118Z" fill="white"/>
<path d="M12.9032 54.4118C12.9032 55.2239 12.1811 55.8824 11.2903 55.8824C10.3995 55.8824 9.67742 55.2239 9.67742 54.4118C9.67742 53.5996 10.3995 52.9412 11.2903 52.9412C12.1811 52.9412 12.9032 53.5996 12.9032 54.4118Z" fill="white"/>
<path d="M22.5806 54.4118C22.5806 55.2239 21.8585 55.8824 20.9677 55.8824C20.077 55.8824 19.3548 55.2239 19.3548 54.4118C19.3548 53.5996 20.077 52.9412 20.9677 52.9412C21.8585 52.9412 22.5806 53.5996 22.5806 54.4118Z" fill="white"/>
<path d="M32.2581 54.4118C32.2581 55.2239 31.5359 55.8824 30.6452 55.8824C29.7544 55.8824 29.0323 55.2239 29.0323 54.4118C29.0323 53.5996 29.7544 52.9412 30.6452 52.9412C31.5359 52.9412 32.2581 53.5996 32.2581 54.4118Z" fill="white"/>
<path d="M41.9355 54.4118C41.9355 55.2239 41.2134 55.8824 40.3226 55.8824C39.4318 55.8824 38.7097 55.2239 38.7097 54.4118C38.7097 53.5996 39.4318 52.9412 40.3226 52.9412C41.2134 52.9412 41.9355 53.5996 41.9355 54.4118Z" fill="white"/>
<path d="M51.6129 54.4118C51.6129 55.2239 50.8908 55.8824 50 55.8824C49.1092 55.8824 48.3871 55.2239 48.3871 54.4118C48.3871 53.5996 49.1092 52.9412 50 52.9412C50.8908 52.9412 51.6129 53.5996 51.6129 54.4118Z" fill="white"/>
<path d="M61.2903 54.4118C61.2903 55.2239 60.5682 55.8824 59.6774 55.8824C58.7866 55.8824 58.0645 55.2239 58.0645 54.4118C58.0645 53.5996 58.7866 52.9412 59.6774 52.9412C60.5682 52.9412 61.2903 53.5996 61.2903 54.4118Z" fill="white"/>
<path d="M70.9677 54.4118C70.9677 55.2239 70.2456 55.8824 69.3548 55.8824C68.4641 55.8824 67.7419 55.2239 67.7419 54.4118C67.7419 53.5996 68.4641 52.9412 69.3548 52.9412C70.2456 52.9412 70.9677 53.5996 70.9677 54.4118Z" fill="white"/>
<path d="M80.6452 54.4118C80.6452 55.2239 79.923 55.8824 79.0323 55.8824C78.1415 55.8824 77.4193 55.2239 77.4193 54.4118C77.4193 53.5996 78.1415 52.9412 79.0323 52.9412C79.923 52.9412 80.6452 53.5996 80.6452 54.4118Z" fill="white"/>
<path d="M90.3226 54.4118C90.3226 55.2239 89.6005 55.8824 88.7097 55.8824C87.8189 55.8824 87.0968 55.2239 87.0968 54.4118C87.0968 53.5996 87.8189 52.9412 88.7097 52.9412C89.6005 52.9412 90.3226 53.5996 90.3226 54.4118Z" fill="white"/>
<path d="M100 54.4118C100 55.2239 99.2779 55.8824 98.3871 55.8824C97.4963 55.8824 96.7742 55.2239 96.7742 54.4118C96.7742 53.5996 97.4963 52.9412 98.3871 52.9412C99.2779 52.9412 100 53.5996 100 54.4118Z" fill="white"/>
<path d="M3.22581 63.2353C3.22581 64.0475 2.50368 64.7059 1.6129 64.7059C0.722121 64.7059 0 64.0475 0 63.2353C0 62.4231 0.722121 61.7647 1.6129 61.7647C2.50368 61.7647 3.22581 62.4231 3.22581 63.2353Z" fill="white"/>
<path d="M12.9032 63.2353C12.9032 64.0475 12.1811 64.7059 11.2903 64.7059C10.3995 64.7059 9.67742 64.0475 9.67742 63.2353C9.67742 62.4231 10.3995 61.7647 11.2903 61.7647C12.1811 61.7647 12.9032 62.4231 12.9032 63.2353Z" fill="white"/>
<path d="M22.5806 63.2353C22.5806 64.0475 21.8585 64.7059 20.9677 64.7059C20.077 64.7059 19.3548 64.0475 19.3548 63.2353C19.3548 62.4231 20.077 61.7647 20.9677 61.7647C21.8585 61.7647 22.5806 62.4231 22.5806 63.2353Z" fill="white"/>
<path d="M32.2581 63.2353C32.2581 64.0475 31.5359 64.7059 30.6452 64.7059C29.7544 64.7059 29.0323 64.0475 29.0323 63.2353C29.0323 62.4231 29.7544 61.7647 30.6452 61.7647C31.5359 61.7647 32.2581 62.4231 32.2581 63.2353Z" fill="white"/>
<path d="M41.9355 63.2353C41.9355 64.0475 41.2134 64.7059 40.3226 64.7059C39.4318 64.7059 38.7097 64.0475 38.7097 63.2353C38.7097 62.4231 39.4318 61.7647 40.3226 61.7647C41.2134 61.7647 41.9355 62.4231 41.9355 63.2353Z" fill="white"/>
<path d="M51.6129 63.2353C51.6129 64.0475 50.8908 64.7059 50 64.7059C49.1092 64.7059 48.3871 64.0475 48.3871 63.2353C48.3871 62.4231 49.1092 61.7647 50 61.7647C50.8908 61.7647 51.6129 62.4231 51.6129 63.2353Z" fill="white"/>
<path d="M61.2903 63.2353C61.2903 64.0475 60.5682 64.7059 59.6774 64.7059C58.7866 64.7059 58.0645 64.0475 58.0645 63.2353C58.0645 62.4231 58.7866 61.7647 59.6774 61.7647C60.5682 61.7647 61.2903 62.4231 61.2903 63.2353Z" fill="white"/>
<path d="M70.9677 63.2353C70.9677 64.0475 70.2456 64.7059 69.3548 64.7059C68.4641 64.7059 67.7419 64.0475 67.7419 63.2353C67.7419 62.4231 68.4641 61.7647 69.3548 61.7647C70.2456 61.7647 70.9677 62.4231 70.9677 63.2353Z" fill="white"/>
<path d="M80.6452 63.2353C80.6452 64.0475 79.923 64.7059 79.0323 64.7059C78.1415 64.7059 77.4193 64.0475 77.4193 63.2353C77.4193 62.4231 78.1415 61.7647 79.0323 61.7647C79.923 61.7647 80.6452 62.4231 80.6452 63.2353Z" fill="white"/>
<path d="M90.3226 63.2353C90.3226 64.0475 89.6005 64.7059 88.7097 64.7059C87.8189 64.7059 87.0968 64.0475 87.0968 63.2353C87.0968 62.4231 87.8189 61.7647 88.7097 61.7647C89.6005 61.7647 90.3226 62.4231 90.3226 63.2353Z" fill="white"/>
<path d="M100 63.2353C100 64.0475 99.2779 64.7059 98.3871 64.7059C97.4963 64.7059 96.7742 64.0475 96.7742 63.2353C96.7742 62.4231 97.4963 61.7647 98.3871 61.7647C99.2779 61.7647 100 62.4231 100 63.2353Z" fill="white"/>
<path d="M3.22581 72.0588C3.22581 72.871 2.50368 73.5294 1.6129 73.5294C0.722121 73.5294 0 72.871 0 72.0588C0 71.2466 0.722121 70.5882 1.6129 70.5882C2.50368 70.5882 3.22581 71.2466 3.22581 72.0588Z" fill="white"/>
<path d="M12.9032 72.0588C12.9032 72.871 12.1811 73.5294 11.2903 73.5294C10.3995 73.5294 9.67742 72.871 9.67742 72.0588C9.67742 71.2466 10.3995 70.5882 11.2903 70.5882C12.1811 70.5882 12.9032 71.2466 12.9032 72.0588Z" fill="white"/>
<path d="M22.5806 72.0588C22.5806 72.871 21.8585 73.5294 20.9677 73.5294C20.077 73.5294 19.3548 72.871 19.3548 72.0588C19.3548 71.2466 20.077 70.5882 20.9677 70.5882C21.8585 70.5882 22.5806 71.2466 22.5806 72.0588Z" fill="white"/>
<path d="M32.2581 72.0588C32.2581 72.871 31.5359 73.5294 30.6452 73.5294C29.7544 73.5294 29.0323 72.871 29.0323 72.0588C29.0323 71.2466 29.7544 70.5882 30.6452 70.5882C31.5359 70.5882 32.2581 71.2466 32.2581 72.0588Z" fill="white"/>
<path d="M41.9355 72.0588C41.9355 72.871 41.2134 73.5294 40.3226 73.5294C39.4318 73.5294 38.7097 72.871 38.7097 72.0588C38.7097 71.2466 39.4318 70.5882 40.3226 70.5882C41.2134 70.5882 41.9355 71.2466 41.9355 72.0588Z" fill="white"/>
<path d="M51.6129 72.0588C51.6129 72.871 50.8908 73.5294 50 73.5294C49.1092 73.5294 48.3871 72.871 48.3871 72.0588C48.3871 71.2466 49.1092 70.5882 50 70.5882C50.8908 70.5882 51.6129 71.2466 51.6129 72.0588Z" fill="white"/>
<path d="M61.2903 72.0588C61.2903 72.871 60.5682 73.5294 59.6774 73.5294C58.7866 73.5294 58.0645 72.871 58.0645 72.0588C58.0645 71.2466 58.7866 70.5882 59.6774 70.5882C60.5682 70.5882 61.2903 71.2466 61.2903 72.0588Z" fill="white"/>
<path d="M70.9677 72.0588C70.9677 72.871 70.2456 73.5294 69.3548 73.5294C68.4641 73.5294 67.7419 72.871 67.7419 72.0588C67.7419 71.2466 68.4641 70.5882 69.3548 70.5882C70.2456 70.5882 70.9677 71.2466 70.9677 72.0588Z" fill="white"/>
<path d="M80.6452 72.0588C80.6452 72.871 79.923 73.5294 79.0323 73.5294C78.1415 73.5294 77.4193 72.871 77.4193 72.0588C77.4193 71.2466 78.1415 70.5882 79.0323 70.5882C79.923 70.5882 80.6452 71.2466 80.6452 72.0588Z" fill="white"/>
<path d="M90.3226 72.0588C90.3226 72.871 89.6005 73.5294 88.7097 73.5294C87.8189 73.5294 87.0968 72.871 87.0968 72.0588C87.0968 71.2466 87.8189 70.5882 88.7097 70.5882C89.6005 70.5882 90.3226 71.2466 90.3226 72.0588Z" fill="white"/>
<path d="M100 72.0588C100 72.871 99.2779 73.5294 98.3871 73.5294C97.4963 73.5294 96.7742 72.871 96.7742 72.0588C96.7742 71.2466 97.4963 70.5882 98.3871 70.5882C99.2779 70.5882 100 71.2466 100 72.0588Z" fill="white"/>
<path d="M3.22581 80.8824C3.22581 81.6945 2.50368 82.3529 1.6129 82.3529C0.722121 82.3529 0 81.6945 0 80.8824C0 80.0702 0.722121 79.4118 1.6129 79.4118C2.50368 79.4118 3.22581 80.0702 3.22581 80.8824Z" fill="white"/>
<path d="M12.9032 80.8824C12.9032 81.6945 12.1811 82.3529 11.2903 82.3529C10.3995 82.3529 9.67742 81.6945 9.67742 80.8824C9.67742 80.0702 10.3995 79.4118 11.2903 79.4118C12.1811 79.4118 12.9032 80.0702 12.9032 80.8824Z" fill="white"/>
<path d="M22.5806 80.8824C22.5806 81.6945 21.8585 82.3529 20.9677 82.3529C20.077 82.3529 19.3548 81.6945 19.3548 80.8824C19.3548 80.0702 20.077 79.4118 20.9677 79.4118C21.8585 79.4118 22.5806 80.0702 22.5806 80.8824Z" fill="white"/>
<path d="M32.2581 80.8824C32.2581 81.6945 31.5359 82.3529 30.6452 82.3529C29.7544 82.3529 29.0323 81.6945 29.0323 80.8824C29.0323 80.0702 29.7544 79.4118 30.6452 79.4118C31.5359 79.4118 32.2581 80.0702 32.2581 80.8824Z" fill="white"/>
<path d="M41.9355 80.8824C41.9355 81.6945 41.2134 82.3529 40.3226 82.3529C39.4318 82.3529 38.7097 81.6945 38.7097 80.8824C38.7097 80.0702 39.4318 79.4118 40.3226 79.4118C41.2134 79.4118 41.9355 80.0702 41.9355 80.8824Z" fill="white"/>
<path d="M51.6129 80.8824C51.6129 81.6945 50.8908 82.3529 50 82.3529C49.1092 82.3529 48.3871 81.6945 48.3871 80.8824C48.3871 80.0702 49.1092 79.4118 50 79.4118C50.8908 79.4118 51.6129 80.0702 51.6129 80.8824Z" fill="white"/>
<path d="M61.2903 80.8824C61.2903 81.6945 60.5682 82.3529 59.6774 82.3529C58.7866 82.3529 58.0645 81.6945 58.0645 80.8824C58.0645 80.0702 58.7866 79.4118 59.6774 79.4118C60.5682 79.4118 61.2903 80.0702 61.2903 80.8824Z" fill="white"/>
<path d="M70.9677 80.8824C70.9677 81.6945 70.2456 82.3529 69.3548 82.3529C68.4641 82.3529 67.7419 81.6945 67.7419 80.8824C67.7419 80.0702 68.4641 79.4118 69.3548 79.4118C70.2456 79.4118 70.9677 80.0702 70.9677 80.8824Z" fill="white"/>
<path d="M80.6452 80.8824C80.6452 81.6945 79.923 82.3529 79.0323 82.3529C78.1415 82.3529 77.4193 81.6945 77.4193 80.8824C77.4193 80.0702 78.1415 79.4118 79.0323 79.4118C79.923 79.4118 80.6452 80.0702 80.6452 80.8824Z" fill="white"/>
<path d="M90.3226 80.8824C90.3226 81.6945 89.6005 82.3529 88.7097 82.3529C87.8189 82.3529 87.0968 81.6945 87.0968 80.8824C87.0968 80.0702 87.8189 79.4118 88.7097 79.4118C89.6005 79.4118 90.3226 80.0702 90.3226 80.8824Z" fill="white"/>
<path d="M100 80.8824C100 81.6945 99.2779 82.3529 98.3871 82.3529C97.4963 82.3529 96.7742 81.6945 96.7742 80.8824C96.7742 80.0702 97.4963 79.4118 98.3871 79.4118C99.2779 79.4118 100 80.0702 100 80.8824Z" fill="white"/>
<path d="M3.22581 89.7059C3.22581 90.5181 2.50368 91.1765 1.6129 91.1765C0.722121 91.1765 0 90.5181 0 89.7059C0 88.8937 0.722121 88.2353 1.6129 88.2353C2.50368 88.2353 3.22581 88.8937 3.22581 89.7059Z" fill="white"/>
<path d="M12.9032 89.7059C12.9032 90.5181 12.1811 91.1765 11.2903 91.1765C10.3995 91.1765 9.67742 90.5181 9.67742 89.7059C9.67742 88.8937 10.3995 88.2353 11.2903 88.2353C12.1811 88.2353 12.9032 88.8937 12.9032 89.7059Z" fill="white"/>
<path d="M22.5806 89.7059C22.5806 90.5181 21.8585 91.1765 20.9677 91.1765C20.077 91.1765 19.3548 90.5181 19.3548 89.7059C19.3548 88.8937 20.077 88.2353 20.9677 88.2353C21.8585 88.2353 22.5806 88.8937 22.5806 89.7059Z" fill="white"/>
<path d="M32.2581 89.7059C32.2581 90.5181 31.5359 91.1765 30.6452 91.1765C29.7544 91.1765 29.0323 90.5181 29.0323 89.7059C29.0323 88.8937 29.7544 88.2353 30.6452 88.2353C31.5359 88.2353 32.2581 88.8937 32.2581 89.7059Z" fill="white"/>
<path d="M41.9355 89.7059C41.9355 90.5181 41.2134 91.1765 40.3226 91.1765C39.4318 91.1765 38.7097 90.5181 38.7097 89.7059C38.7097 88.8937 39.4318 88.2353 40.3226 88.2353C41.2134 88.2353 41.9355 88.8937 41.9355 89.7059Z" fill="white"/>
<path d="M51.6129 89.7059C51.6129 90.5181 50.8908 91.1765 50 91.1765C49.1092 91.1765 48.3871 90.5181 48.3871 89.7059C48.3871 88.8937 49.1092 88.2353 50 88.2353C50.8908 88.2353 51.6129 88.8937 51.6129 89.7059Z" fill="white"/>
<path d="M61.2903 89.7059C61.2903 90.5181 60.5682 91.1765 59.6774 91.1765C58.7866 91.1765 58.0645 90.5181 58.0645 89.7059C58.0645 88.8937 58.7866 88.2353 59.6774 88.2353C60.5682 88.2353 61.2903 88.8937 61.2903 89.7059Z" fill="white"/>
<path d="M70.9677 89.7059C70.9677 90.5181 70.2456 91.1765 69.3548 91.1765C68.4641 91.1765 67.7419 90.5181 67.7419 89.7059C67.7419 88.8937 68.4641 88.2353 69.3548 88.2353C70.2456 88.2353 70.9677 88.8937 70.9677 89.7059Z" fill="white"/>
<path d="M80.6452 89.7059C80.6452 90.5181 79.923 91.1765 79.0323 91.1765C78.1415 91.1765 77.4193 90.5181 77.4193 89.7059C77.4193 88.8937 78.1415 88.2353 79.0323 88.2353C79.923 88.2353 80.6452 88.8937 80.6452 89.7059Z" fill="white"/>
<path d="M90.3226 89.7059C90.3226 90.5181 89.6005 91.1765 88.7097 91.1765C87.8189 91.1765 87.0968 90.5181 87.0968 89.7059C87.0968 88.8937 87.8189 88.2353 88.7097 88.2353C89.6005 88.2353 90.3226 88.8937 90.3226 89.7059Z" fill="white"/>
<path d="M100 89.7059C100 90.5181 99.2779 91.1765 98.3871 91.1765C97.4963 91.1765 96.7742 90.5181 96.7742 89.7059C96.7742 88.8937 97.4963 88.2353 98.3871 88.2353C99.2779 88.2353 100 88.8937 100 89.7059Z" fill="white"/>
<path d="M3.22581 98.5294C3.22581 99.3416 2.50368 100 1.6129 100C0.722121 100 0 99.3416 0 98.5294C0 97.7172 0.722121 97.0588 1.6129 97.0588C2.50368 97.0588 3.22581 97.7172 3.22581 98.5294Z" fill="white"/>
<path d="M12.9032 98.5294C12.9032 99.3416 12.1811 100 11.2903 100C10.3995 100 9.67742 99.3416 9.67742 98.5294C9.67742 97.7172 10.3995 97.0588 11.2903 97.0588C12.1811 97.0588 12.9032 97.7172 12.9032 98.5294Z" fill="white"/>
<path d="M22.5806 98.5294C22.5806 99.3416 21.8585 100 20.9677 100C20.077 100 19.3548 99.3416 19.3548 98.5294C19.3548 97.7172 20.077 97.0588 20.9677 97.0588C21.8585 97.0588 22.5806 97.7172 22.5806 98.5294Z" fill="white"/>
<path d="M32.2581 98.5294C32.2581 99.3416 31.5359 100 30.6452 100C29.7544 100 29.0323 99.3416 29.0323 98.5294C29.0323 97.7172 29.7544 97.0588 30.6452 97.0588C31.5359 97.0588 32.2581 97.7172 32.2581 98.5294Z" fill="white"/>
<path d="M41.9355 98.5294C41.9355 99.3416 41.2134 100 40.3226 100C39.4318 100 38.7097 99.3416 38.7097 98.5294C38.7097 97.7172 39.4318 97.0588 40.3226 97.0588C41.2134 97.0588 41.9355 97.7172 41.9355 98.5294Z" fill="white"/>
<path d="M51.6129 98.5294C51.6129 99.3416 50.8908 100 50 100C49.1092 100 48.3871 99.3416 48.3871 98.5294C48.3871 97.7172 49.1092 97.0588 50 97.0588C50.8908 97.0588 51.6129 97.7172 51.6129 98.5294Z" fill="white"/>
<path d="M61.2903 98.5294C61.2903 99.3416 60.5682 100 59.6774 100C58.7866 100 58.0645 99.3416 58.0645 98.5294C58.0645 97.7172 58.7866 97.0588 59.6774 97.0588C60.5682 97.0588 61.2903 97.7172 61.2903 98.5294Z" fill="white"/>
<path d="M70.9677 98.5294C70.9677 99.3416 70.2456 100 69.3548 100C68.4641 100 67.7419 99.3416 67.7419 98.5294C67.7419 97.7172 68.4641 97.0588 69.3548 97.0588C70.2456 97.0588 70.9677 97.7172 70.9677 98.5294Z" fill="white"/>
<path d="M80.6452 98.5294C80.6452 99.3416 79.923 100 79.0323 100C78.1415 100 77.4193 99.3416 77.4193 98.5294C77.4193 97.7172 78.1415 97.0588 79.0323 97.0588C79.923 97.0588 80.6452 97.7172 80.6452 98.5294Z" fill="white"/>
<path d="M90.3226 98.5294C90.3226 99.3416 89.6005 100 88.7097 100C87.8189 100 87.0968 99.3416 87.0968 98.5294C87.0968 97.7172 87.8189 97.0588 88.7097 97.0588C89.6005 97.0588 90.3226 97.7172 90.3226 98.5294Z" fill="white"/>
<path d="M100 98.5294C100 99.3416 99.2779 100 98.3871 100C97.4963 100 96.7742 99.3416 96.7742 98.5294C96.7742 97.7172 97.4963 97.0588 98.3871 97.0588C99.2779 97.0588 100 97.7172 100 98.5294Z" fill="white"/>
</g>
</svg>
